<svg xmlns="http://www.w3.org/2000/svg" viewBox="0 0 1800 1125" role="img" aria-label="Fete agricole de nuit avec scene, chapiteaux et champs"><defs><linearGradient id="sky" x1="0" y1="0" x2="1" y2="1"><stop offset="0" stop-color="#06100c"/><stop offset=".42" stop-color="#133323"/><stop offset=".74" stop-color="#745225"/><stop offset="1" stop-color="#f0a73a"/></linearGradient><linearGradient id="field" x1="0" y1="0" x2="1" y2="0"><stop offset="0" stop-color="#17371f"/><stop offset=".45" stop-color="#6d7d2c"/><stop offset="1" stop-color="#d3a23b"/></linearGradient><radialGradient id="light" cx="50%" cy="50%" r="50%"><stop offset="0" stop-color="#ffe79a" stop-opacity=".95"/><stop offset=".34" stop-color="#f0a73a" stop-opacity=".42"/><stop offset="1" stop-color="#f0a73a" stop-opacity="0"/></radialGradient><filter id="glow" x="-40%" y="-40%" width="180%" height="180%"><feGaussianBlur stdDeviation="9" result="blur"/><feMerge><feMergeNode in="blur"/><feMergeNode in="SourceGraphic"/></feMerge></filter></defs><rect width="1800" height="1125" fill="url(#sky)"/><path d="M0 430 C230 380 410 440 620 406 C830 372 1000 340 1210 386 C1420 432 1590 365 1800 405 L1800 1125 L0 1125 Z" fill="#102315" opacity=".92"/><path d="M0 720 C320 590 630 610 910 650 C1210 692 1490 595 1800 650 L1800 1125 L0 1125 Z" fill="url(#field)"/><path d="M1030 1125 L1800 720 L1800 1125 Z" fill="#c9952e" opacity=".8"/><g stroke="#f3c766" stroke-opacity=".38" stroke-width="3"><path d="M1110 1125 L1800 755"/><path d="M1230 1125 L1800 810"/><path d="M1360 1125 L1800 872"/><path d="M1500 1125 L1800 940"/><path d="M1650 1125 L1800 1015"/></g><g opacity=".95"><rect x="320" y="610" width="780" height="155" rx="10" fill="#1b261a"/><g fill="#fff7dc"><path d="M355 650 L420 575 L485 650 Z"/><rect x="355" y="650" width="130" height="76"/><path d="M510 640 L590 560 L670 640 Z"/><rect x="510" y="640" width="160" height="88"/><path d="M705 646 L780 570 L855 646 Z"/><rect x="705" y="646" width="150" height="82"/><path d="M875 636 L965 545 L1055 636 Z"/><rect x="875" y="636" width="180" height="94"/></g></g><g filter="url(#glow)"><rect x="1200" y="480" width="310" height="210" rx="6" fill="#111610"/><rect x="1230" y="510" width="250" height="148" fill="#20140d"/><circle cx="1285" cy="548" r="18" fill="#f4be3a"/><circle cx="1400" cy="548" r="18" fill="#b8d76b"/><circle cx="1460" cy="590" r="18" fill="#e87528"/><path d="M1240 630 L1480 512" stroke="#b8d76b" stroke-width="12" stroke-opacity=".72"/><path d="M1475 630 L1260 520" stroke="#f4be3a" stroke-width="12" stroke-opacity=".72"/></g><g fill="#0f180f"><rect x="1188" y="690" width="336" height="24"/><rect x="1198" y="442" width="22" height="270"/><rect x="1492" y="442" width="22" height="270"/></g><g fill="#213a23" opacity=".96"><rect x="650" y="730" width="95" height="38" rx="8"/><circle cx="672" cy="771" r="20"/><circle cx="728" cy="771" r="20"/><rect x="780" y="710" width="125" height="44" rx="8"/><circle cx="805" cy="758" r="22"/><circle cx="880" cy="758" r="22"/><rect x="940" y="740" width="150" height="36" rx="8"/><circle cx="970" cy="779" r="21"/><circle cx="1060" cy="779" r="21"/></g><g fill="#ffd983" opacity=".96"><circle cx="348" cy="760" r="5"/><circle cx="410" cy="750" r="4"/><circle cx="487" cy="754" r="5"/><circle cx="553" cy="760" r="5"/><circle cx="622" cy="748" r="4"/><circle cx="715" cy="756" r="5"/><circle cx="794" cy="747" r="4"/><circle cx="874" cy="760" r="5"/><circle cx="960" cy="750" r="4"/><circle cx="1045" cy="758" r="5"/><circle cx="1160" cy="750" r="4"/><circle cx="1320" cy="735" r="5"/><circle cx="1450" cy="735" r="4"/></g><g opacity=".85"><circle cx="1240" cy="515" r="160" fill="url(#light)"/><circle cx="1450" cy="550" r="210" fill="url(#light)"/><circle cx="600" cy="655" r="170" fill="url(#light)"/></g><path d="M0 0 H760 C500 160 220 190 0 160 Z" fill="#020806" opacity=".62"/></svg>
